<svg xmlns="http://www.w3.org/2000/svg" xmlns:xlink="http://www.w3.org/1999/xlink" width="500" zoomAndPan="magnify" viewBox="0 0 375 374.999991" height="500" preserveAspectRatio="xMidYMid meet" version="1.0"><defs><g/><clipPath id="58a9fd2451"><path d="M 129 215 L 255 215 L 255 273.816406 L 129 273.816406 Z M 129 215 " clip-rule="nonzero"/></clipPath><clipPath id="179cedd304"><path d="M 105 101.316406 L 270 101.316406 L 270 175 L 105 175 Z M 105 101.316406 " clip-rule="nonzero"/></clipPath><clipPath id="3ed3294e61"><path d="M 37.5 146 L 337.5 146 L 337.5 241 L 37.5 241 Z M 37.5 146 " clip-rule="nonzero"/></clipPath><clipPath id="bf5e459313"><path d="M 201 132 L 206.820312 132 L 206.820312 134 L 201 134 Z M 201 132 " clip-rule="nonzero"/></clipPath><clipPath id="a57ab0e27f"><path d="M 186 113.140625 L 189 113.140625 L 189 119 L 186 119 Z M 186 113.140625 " clip-rule="nonzero"/></clipPath><clipPath id="dd1e3e0894"><path d="M 167.820312 132 L 174 132 L 174 134 L 167.820312 134 Z M 167.820312 132 " clip-rule="nonzero"/></clipPath><clipPath id="915d78f7c3"><path d="M 183 152 L 191 152 L 191 154.390625 L 183 154.390625 Z M 183 152 " clip-rule="nonzero"/></clipPath><clipPath id="ed72af73a3"><path d="M 181 248 L 195 248 L 195 260.535156 L 181 260.535156 Z M 181 248 " clip-rule="nonzero"/></clipPath><clipPath id="0cd9d13ced"><path d="M 170 245.710938 L 180 245.710938 L 180 256 L 170 256 Z M 170 245.710938 " clip-rule="nonzero"/></clipPath><clipPath id="60b6fedfa1"><path d="M 196 245.710938 L 205.8125 245.710938 L 205.8125 256 L 196 256 Z M 196 245.710938 " clip-rule="nonzero"/></clipPath></defs><rect x="-37.5" width="450" fill="#ffffff" y="-37.499999" height="449.999989" fill-opacity="1"/><rect x="-37.5" width="450" fill="#ffffff" y="-37.499999" height="449.999989" fill-opacity="1"/><rect x="-37.5" width="450" fill="#ffffff" y="-37.499999" height="449.999989" fill-opacity="1"/><g clip-path="url(#58a9fd2451)"><path fill="#333333" d="M 189.496094 222.222656 C 168.597656 226.566406 148.453125 229.082031 129.421875 229.78125 C 153.503906 264.539062 187.492188 273.804688 187.492188 273.804688 C 187.492188 273.804688 230.566406 262.0625 254.097656 215.417969 C 254.085938 215.417969 254.085938 215.417969 254.070312 215.417969 C 237.984375 215.417969 216.253906 217.71875 189.496094 222.222656 Z M 189.496094 222.222656 " fill-opacity="1" fill-rule="nonzero"/></g><g clip-path="url(#179cedd304)"><path fill="#333333" d="M 109.476562 174.273438 C 121.679688 174.273438 146.839844 173.316406 178.273438 166.984375 C 200.273438 161.023438 223.738281 158.011719 247.996094 158.011719 C 255.578125 158.011719 262.511719 158.308594 268.667969 158.75 C 268.867188 155.578125 268.988281 152.308594 269.03125 148.960938 L 187.492188 101.316406 L 105.96875 148.960938 C 106.0625 158.011719 106.789062 166.429688 108 174.273438 C 108.484375 174.273438 108.953125 174.273438 109.476562 174.273438 Z M 109.476562 174.273438 " fill-opacity="1" fill-rule="nonzero"/></g><g clip-path="url(#3ed3294e61)"><path fill="#fbb03b" d="M 297.398438 179.035156 L 297.398438 167.105469 C 297.398438 167.105469 286.273438 164.535156 268.332031 163.230469 C 262.269531 162.785156 255.441406 162.503906 247.996094 162.503906 C 228.335938 162.503906 204.425781 164.546875 179.308594 171.367188 C 147.402344 177.824219 121.828125 178.777344 109.476562 178.777344 C 109.222656 178.777344 109.007812 178.777344 108.765625 178.777344 C 104.035156 178.765625 101.429688 178.617188 101.429688 178.617188 L 101.429688 166.484375 C 101.429688 166.484375 58.449219 157.109375 52.28125 146.6875 L 62.0625 181.816406 L 37.589844 197.351562 L 76.738281 211.839844 L 76.738281 221.414062 C 76.738281 221.414062 91.335938 225.503906 118.601562 225.503906 C 121.128906 225.503906 123.777344 225.464844 126.519531 225.382812 C 143.316406 224.914062 164.148438 222.882812 188.664062 217.785156 C 220.917969 212.335938 241.425781 210.898438 254.070312 210.898438 C 254.824219 210.898438 255.550781 210.910156 256.25 210.910156 C 268.585938 211.085938 272.496094 212.660156 272.496094 212.660156 L 272.496094 223.3125 C 272.496094 223.3125 314.628906 232.6875 322.289062 240.769531 L 314.210938 207.574219 L 337.410156 193.734375 C 337.410156 193.734375 314.84375 180.3125 297.398438 179.035156 Z M 297.398438 179.035156 " fill-opacity="1" fill-rule="nonzero"/></g><g clip-path="url(#bf5e459313)"><path fill="#fbb03b" d="M 205.925781 132.242188 L 201.84375 132.242188 C 201.402344 132.242188 201.046875 132.605469 201.046875 133.050781 C 201.046875 133.496094 201.402344 133.859375 201.84375 133.859375 L 205.925781 133.859375 C 206.367188 133.859375 206.722656 133.496094 206.722656 133.050781 C 206.722656 132.605469 206.359375 132.242188 205.925781 132.242188 Z M 205.925781 132.242188 " fill-opacity="1" fill-rule="nonzero"/></g><path fill="#fbb03b" d="M 199.976562 126.445312 C 200.117188 126.445312 200.253906 126.414062 200.371094 126.335938 L 203.910156 124.269531 C 204.289062 124.046875 204.421875 123.550781 204.199219 123.164062 C 203.980469 122.777344 203.492188 122.640625 203.109375 122.871094 L 199.574219 124.9375 C 199.191406 125.160156 199.058594 125.65625 199.28125 126.042969 C 199.4375 126.300781 199.703125 126.445312 199.976562 126.445312 Z M 199.976562 126.445312 " fill-opacity="1" fill-rule="nonzero"/><path fill="#fbb03b" d="M 203.71875 141.777344 L 200.1875 139.714844 C 199.800781 139.492188 199.316406 139.625 199.09375 140.011719 C 198.875 140.398438 199.007812 140.890625 199.386719 141.113281 L 202.917969 143.179688 C 203.042969 143.25 203.179688 143.285156 203.316406 143.285156 C 203.59375 143.285156 203.859375 143.140625 204.011719 142.882812 C 204.230469 142.496094 204.097656 142.007812 203.71875 141.777344 Z M 203.71875 141.777344 " fill-opacity="1" fill-rule="nonzero"/><path fill="#fbb03b" d="M 194.300781 120.855469 C 194.425781 120.925781 194.5625 120.964844 194.699219 120.964844 C 194.972656 120.964844 195.242188 120.820312 195.390625 120.558594 L 197.4375 116.988281 C 197.660156 116.601562 197.527344 116.109375 197.144531 115.886719 C 196.757812 115.660156 196.273438 115.792969 196.054688 116.179688 L 194.007812 119.75 C 193.789062 120.136719 193.917969 120.632812 194.300781 120.855469 Z M 194.300781 120.855469 " fill-opacity="1" fill-rule="nonzero"/><path fill="#fbb03b" d="M 187.410156 122.785156 C 181.8125 122.789062 177.253906 127.398438 177.253906 133.0625 C 177.253906 135.46875 178.097656 137.816406 179.621094 139.660156 C 181.425781 141.839844 182.421875 144.492188 182.421875 147.148438 L 182.421875 148.496094 L 192.402344 148.496094 L 192.402344 147.148438 C 192.402344 144.492188 193.394531 141.832031 195.199219 139.660156 C 196.726562 137.816406 197.570312 135.476562 197.570312 133.0625 C 197.574219 127.398438 193.011719 122.789062 187.410156 122.785156 Z M 189.503906 144.070312 C 189.5 144.078125 189.492188 144.078125 189.480469 144.078125 C 188.777344 144.101562 188.054688 144.105469 187.328125 144.105469 C 186.59375 144.105469 185.859375 144.09375 185.15625 144.078125 C 185.152344 144.070312 185.144531 144.070312 185.140625 144.070312 C 185.042969 142.992188 184.882812 141.5625 184.601562 140.160156 C 184.609375 140.160156 184.613281 140.15625 184.621094 140.15625 C 185.710938 139.867188 186.617188 138.707031 187.324219 136.695312 C 188.027344 138.703125 188.933594 139.859375 190.023438 140.15625 C 190.03125 140.15625 190.035156 140.160156 190.046875 140.160156 C 189.753906 141.5625 189.59375 142.992188 189.503906 144.070312 Z M 190.996094 136.996094 C 190.992188 137.011719 190.976562 137.03125 190.972656 137.050781 C 190.644531 137.761719 190.382812 138.617188 190.179688 139.523438 C 190.171875 139.515625 190.167969 139.515625 190.160156 139.515625 C 189.160156 139.234375 188.289062 137.863281 187.632812 135.53125 L 187.324219 134.433594 L 187.011719 135.53125 C 186.355469 137.859375 185.480469 139.234375 184.484375 139.515625 C 184.476562 139.523438 184.472656 139.523438 184.464844 139.523438 C 184.257812 138.625 183.996094 137.761719 183.671875 137.050781 C 183.667969 137.03125 183.660156 137.011719 183.648438 136.996094 L 183.648438 136.988281 L 183.65625 136.984375 C 184.554688 135.96875 185.234375 135.011719 185.753906 134.136719 C 187.011719 131.988281 187.292969 130.300781 187.324219 129.339844 L 187.347656 129.339844 C 187.375 130.300781 187.652344 131.988281 188.914062 134.136719 C 189.433594 135.015625 190.113281 135.96875 191.015625 136.984375 L 191.019531 136.988281 Z M 190.996094 136.996094 " fill-opacity="1" fill-rule="nonzero"/><g clip-path="url(#a57ab0e27f)"><path fill="#fbb03b" d="M 187.410156 118.886719 C 187.851562 118.886719 188.210938 118.527344 188.210938 118.082031 L 188.210938 113.949219 C 188.210938 113.503906 187.851562 113.140625 187.410156 113.140625 C 186.96875 113.140625 186.613281 113.503906 186.613281 113.949219 L 186.613281 118.074219 C 186.613281 118.527344 186.96875 118.886719 187.410156 118.886719 Z M 187.410156 118.886719 " fill-opacity="1" fill-rule="nonzero"/></g><path fill="#fbb03b" d="M 179.378906 120.523438 C 179.527344 120.78125 179.796875 120.925781 180.070312 120.925781 C 180.207031 120.925781 180.34375 120.898438 180.46875 120.820312 C 180.851562 120.59375 180.984375 120.101562 180.761719 119.714844 L 178.714844 116.144531 C 178.496094 115.757812 178.007812 115.625 177.625 115.847656 C 177.242188 116.070312 177.113281 116.566406 177.332031 116.953125 Z M 179.378906 120.523438 " fill-opacity="1" fill-rule="nonzero"/><path fill="#fbb03b" d="M 174.417969 139.777344 L 170.886719 141.839844 C 170.503906 142.0625 170.371094 142.554688 170.59375 142.941406 C 170.742188 143.203125 171.011719 143.347656 171.285156 143.347656 C 171.421875 143.347656 171.558594 143.308594 171.683594 143.238281 L 175.214844 141.175781 C 175.597656 140.953125 175.726562 140.457031 175.507812 140.070312 C 175.285156 139.683594 174.796875 139.554688 174.417969 139.777344 Z M 174.417969 139.777344 " fill-opacity="1" fill-rule="nonzero"/><path fill="#fbb03b" d="M 170.785156 124.234375 L 174.316406 126.300781 C 174.441406 126.375 174.578125 126.410156 174.714844 126.410156 C 174.988281 126.410156 175.257812 126.265625 175.40625 126.003906 C 175.625 125.621094 175.496094 125.125 175.113281 124.902344 L 171.582031 122.832031 C 171.195312 122.609375 170.710938 122.742188 170.492188 123.128906 C 170.277344 123.519531 170.402344 124.007812 170.785156 124.234375 Z M 170.785156 124.234375 " fill-opacity="1" fill-rule="nonzero"/><g clip-path="url(#dd1e3e0894)"><path fill="#fbb03b" d="M 173.597656 133.050781 C 173.597656 132.605469 173.242188 132.242188 172.800781 132.242188 L 168.714844 132.242188 C 168.273438 132.242188 167.914062 132.605469 167.914062 133.050781 C 167.914062 133.496094 168.273438 133.859375 168.714844 133.859375 L 172.792969 133.859375 C 173.242188 133.859375 173.597656 133.496094 173.597656 133.050781 Z M 173.597656 133.050781 " fill-opacity="1" fill-rule="nonzero"/></g><g clip-path="url(#915d78f7c3)"><path fill="#fbb03b" d="M 186.390625 152.574219 L 183.976562 152.574219 C 183.976562 152.574219 184.113281 153.75 185.574219 154.265625 C 185.820312 154.347656 186.074219 154.390625 186.339844 154.390625 L 188.304688 154.390625 C 188.5625 154.390625 188.824219 154.355469 189.070312 154.265625 C 190.53125 153.75 190.667969 152.574219 190.667969 152.574219 Z M 186.390625 152.574219 " fill-opacity="1" fill-rule="nonzero"/></g><path fill="#fbb03b" d="M 184.046875 151.265625 L 190.691406 151.265625 C 191.605469 151.265625 192.339844 150.519531 192.339844 149.601562 L 182.402344 149.601562 C 182.402344 150.523438 183.136719 151.265625 184.046875 151.265625 Z M 184.046875 151.265625 " fill-opacity="1" fill-rule="nonzero"/><g clip-path="url(#ed72af73a3)"><path fill="#fbb03b" d="M 187.953125 260.710938 L 185.96875 256.726562 L 181.539062 256.085938 L 184.746094 252.988281 L 183.988281 248.609375 L 187.953125 250.675781 L 191.914062 248.609375 L 191.15625 252.988281 L 194.363281 256.085938 L 189.933594 256.726562 Z M 187.953125 260.710938 " fill-opacity="1" fill-rule="nonzero"/></g><g clip-path="url(#0cd9d13ced)"><path fill="#fbb03b" d="M 174.402344 255.421875 L 173.335938 252.148438 L 170.011719 251.164062 L 172.820312 249.148438 L 172.734375 245.710938 L 175.535156 247.734375 L 178.804688 246.59375 L 177.730469 249.863281 L 179.835938 252.59375 L 176.371094 252.589844 Z M 174.402344 255.421875 " fill-opacity="1" fill-rule="nonzero"/></g><g clip-path="url(#60b6fedfa1)"><path fill="#fbb03b" d="M 201.503906 255.421875 L 202.570312 252.148438 L 205.890625 251.164062 L 203.085938 249.148438 L 203.167969 245.710938 L 200.367188 247.734375 L 197.097656 246.59375 L 198.171875 249.863281 L 196.066406 252.59375 L 199.535156 252.589844 Z M 201.503906 255.421875 " fill-opacity="1" fill-rule="nonzero"/></g><g fill="#333333" fill-opacity="1"><g transform="translate(92.974795, 216.142751)"><g><path d="M 4.203125 -5.921875 C 4.296875 -5.078125 4.535156 -4.492188 4.921875 -4.171875 C 5.304688 -3.859375 5.796875 -3.734375 6.390625 -3.796875 C 6.960938 -3.859375 7.40625 -4.082031 7.71875 -4.46875 C 8.039062 -4.863281 8.15625 -5.484375 8.0625 -6.328125 L 6.75 -19.125 C 6.65625 -19.976562 6.414062 -20.5625 6.03125 -20.875 C 5.644531 -21.1875 5.164062 -21.3125 4.59375 -21.25 C 4 -21.1875 3.539062 -20.960938 3.21875 -20.578125 C 2.90625 -20.191406 2.796875 -19.570312 2.890625 -18.71875 Z M -0.8125 -18.109375 C -1 -20.023438 -0.660156 -21.546875 0.203125 -22.671875 C 1.066406 -23.796875 2.410156 -24.453125 4.234375 -24.640625 C 6.054688 -24.828125 7.503906 -24.457031 8.578125 -23.53125 C 9.660156 -22.601562 10.296875 -21.179688 10.484375 -19.265625 L 11.765625 -6.953125 C 11.953125 -5.035156 11.613281 -3.515625 10.75 -2.390625 C 9.894531 -1.265625 8.554688 -0.609375 6.734375 -0.421875 C 4.910156 -0.234375 3.457031 -0.601562 2.375 -1.53125 C 1.289062 -2.457031 0.65625 -3.878906 0.46875 -5.796875 Z M -0.8125 -18.109375 "/></g></g></g><g fill="#333333" fill-opacity="1"><g transform="translate(106.366539, 214.764668)"><g><path d="M 2.890625 -17.625 L 4.65625 -0.484375 L 1.328125 -0.140625 L -1.109375 -23.8125 L 3.546875 -24.28125 L 8.828125 -10.515625 L 7.375 -24.6875 L 10.6875 -25.015625 L 13.125 -1.34375 L 9.296875 -0.953125 Z M 2.890625 -17.625 "/></g></g></g><g fill="#333333" fill-opacity="1"><g transform="translate(120.806621, 213.278705)"><g><path d="M -1.078125 -23.8125 L 2.625 -24.1875 L 4.71875 -3.90625 L 10.84375 -4.546875 L 11.1875 -1.15625 L 1.359375 -0.140625 Z M -1.078125 -23.8125 "/></g></g></g><g fill="#333333" fill-opacity="1"><g transform="translate(132.270762, 212.098982)"><g><path d="M -1.078125 -23.8125 L 2.625 -24.1875 L 5.0625 -0.515625 L 1.359375 -0.140625 Z M -1.078125 -23.8125 "/></g></g></g><g fill="#333333" fill-opacity="1"><g transform="translate(138.696093, 211.437781)"><g><path d="M 2.890625 -17.625 L 4.65625 -0.484375 L 1.328125 -0.140625 L -1.109375 -23.8125 L 3.546875 -24.28125 L 8.828125 -10.515625 L 7.375 -24.6875 L 10.6875 -25.015625 L 13.125 -1.34375 L 9.296875 -0.953125 Z M 2.890625 -17.625 "/></g></g></g><g fill="#333333" fill-opacity="1"><g transform="translate(153.136176, 209.951818)"><g><path d="M 3.65625 -14.203125 L 8.78125 -14.734375 L 9.125 -11.375 L 4 -10.84375 L 4.71875 -3.90625 L 11.15625 -4.578125 L 11.5 -1.1875 L 1.359375 -0.140625 L -1.078125 -23.8125 L 9.0625 -24.859375 L 9.40625 -21.484375 L 2.96875 -20.8125 Z M 3.65625 -14.203125 "/></g></g></g><g fill="#333333" fill-opacity="1"><g transform="translate(165.581023, 208.671175)"><g/></g></g><g fill="#333333" fill-opacity="1"><g transform="translate(170.82274, 208.131774)"><g><path d="M 3.65625 -14.203125 L 8.78125 -14.734375 L 9.125 -11.375 L 4 -10.84375 L 4.71875 -3.90625 L 11.15625 -4.578125 L 11.5 -1.1875 L 1.359375 -0.140625 L -1.078125 -23.8125 L 9.0625 -24.859375 L 9.40625 -21.484375 L 2.96875 -20.8125 Z M 3.65625 -14.203125 "/></g></g></g><g fill="#333333" fill-opacity="1"><g transform="translate(183.267587, 206.851132)"><g><path d="M -1.078125 -23.8125 L 4.8125 -24.421875 C 6.675781 -24.609375 8.117188 -24.253906 9.140625 -23.359375 C 10.160156 -22.460938 10.769531 -21.054688 10.96875 -19.140625 L 12.203125 -7.15625 C 12.390625 -5.238281 12.078125 -3.738281 11.265625 -2.65625 C 10.453125 -1.570312 9.113281 -0.9375 7.25 -0.75 L 1.359375 -0.140625 Z M 2.96875 -20.8125 L 4.71875 -3.90625 L 6.828125 -4.125 C 7.410156 -4.1875 7.851562 -4.40625 8.15625 -4.78125 C 8.457031 -5.15625 8.566406 -5.769531 8.484375 -6.625 L 7.203125 -18.9375 C 7.117188 -19.78125 6.890625 -20.351562 6.515625 -20.65625 C 6.140625 -20.96875 5.660156 -21.09375 5.078125 -21.03125 Z M 2.96875 -20.8125 "/></g></g></g><g fill="#333333" fill-opacity="1"><g transform="translate(197.065135, 205.431289)"><g><path d="M 2.46875 -24.171875 L 4.34375 -5.90625 C 4.4375 -5.050781 4.675781 -4.472656 5.0625 -4.171875 C 5.445312 -3.867188 5.9375 -3.75 6.53125 -3.8125 C 7.101562 -3.875 7.546875 -4.09375 7.859375 -4.46875 C 8.179688 -4.84375 8.296875 -5.457031 8.203125 -6.3125 L 6.328125 -24.578125 L 9.84375 -24.9375 L 11.703125 -6.90625 C 11.898438 -4.988281 11.582031 -3.46875 10.75 -2.34375 C 9.914062 -1.21875 8.585938 -0.5625 6.765625 -0.375 C 4.941406 -0.1875 3.507812 -0.554688 2.46875 -1.484375 C 1.425781 -2.421875 0.804688 -3.847656 0.609375 -5.765625 L -1.25 -23.796875 Z M 2.46875 -24.171875 "/></g></g></g><g fill="#333333" fill-opacity="1"><g transform="translate(210.52451, 204.046246)"><g><path d="M 11.234375 -10.078125 L 11.5625 -6.9375 C 11.75 -5.019531 11.429688 -3.5 10.609375 -2.375 C 9.785156 -1.257812 8.457031 -0.601562 6.625 -0.40625 C 4.800781 -0.21875 3.363281 -0.585938 2.3125 -1.515625 C 1.269531 -2.453125 0.65625 -3.878906 0.46875 -5.796875 L -0.8125 -18.109375 C -1 -20.023438 -0.679688 -21.539062 0.140625 -22.65625 C 0.972656 -23.78125 2.300781 -24.4375 4.125 -24.625 C 5.957031 -24.820312 7.394531 -24.453125 8.4375 -23.515625 C 9.476562 -22.585938 10.09375 -21.164062 10.28125 -19.25 L 10.53125 -16.953125 L 7.015625 -16.59375 L 6.75 -19.125 C 6.65625 -19.976562 6.414062 -20.5625 6.03125 -20.875 C 5.644531 -21.1875 5.164062 -21.3125 4.59375 -21.25 C 4 -21.1875 3.539062 -20.960938 3.21875 -20.578125 C 2.90625 -20.191406 2.796875 -19.570312 2.890625 -18.71875 L 4.203125 -5.921875 C 4.296875 -5.078125 4.53125 -4.5 4.90625 -4.1875 C 5.289062 -3.882812 5.78125 -3.765625 6.375 -3.828125 C 6.945312 -3.890625 7.394531 -4.109375 7.71875 -4.484375 C 8.039062 -4.867188 8.15625 -5.484375 8.0625 -6.328125 L 7.71875 -9.71875 Z M 11.234375 -10.078125 "/></g></g></g><g fill="#333333" fill-opacity="1"><g transform="translate(223.57807, 202.702964)"><g><path d="M 13.390625 -1.375 L 9.640625 -0.984375 L 8.5625 -5.21875 L 3.984375 -4.75 L 3.796875 -0.390625 L 0.375 -0.03125 L 1.734375 -24.09375 L 7.171875 -24.65625 Z M 4.140625 -8 L 7.71875 -8.375 L 4.703125 -20.15625 Z M 4.140625 -8 "/></g></g></g><g fill="#333333" fill-opacity="1"><g transform="translate(237.341796, 201.286602)"><g><path d="M -2.171875 -23.703125 L 9.328125 -24.875 L 9.671875 -21.5 L 5.78125 -21.109375 L 7.875 -0.8125 L 4.171875 -0.421875 L 2.078125 -20.71875 L -1.828125 -20.328125 Z M -2.171875 -23.703125 "/></g></g></g><g fill="#333333" fill-opacity="1"><g transform="translate(249.380839, 200.047719)"><g><path d="M -1.078125 -23.8125 L 2.625 -24.1875 L 5.0625 -0.515625 L 1.359375 -0.140625 Z M -1.078125 -23.8125 "/></g></g></g><g fill="#333333" fill-opacity="1"><g transform="translate(255.80617, 199.386518)"><g><path d="M 4.203125 -5.921875 C 4.296875 -5.078125 4.535156 -4.492188 4.921875 -4.171875 C 5.304688 -3.859375 5.796875 -3.734375 6.390625 -3.796875 C 6.960938 -3.859375 7.40625 -4.082031 7.71875 -4.46875 C 8.039062 -4.863281 8.15625 -5.484375 8.0625 -6.328125 L 6.75 -19.125 C 6.65625 -19.976562 6.414062 -20.5625 6.03125 -20.875 C 5.644531 -21.1875 5.164062 -21.3125 4.59375 -21.25 C 4 -21.1875 3.539062 -20.960938 3.21875 -20.578125 C 2.90625 -20.191406 2.796875 -19.570312 2.890625 -18.71875 Z M -0.8125 -18.109375 C -1 -20.023438 -0.660156 -21.546875 0.203125 -22.671875 C 1.066406 -23.796875 2.410156 -24.453125 4.234375 -24.640625 C 6.054688 -24.828125 7.503906 -24.457031 8.578125 -23.53125 C 9.660156 -22.601562 10.296875 -21.179688 10.484375 -19.265625 L 11.765625 -6.953125 C 11.953125 -5.035156 11.613281 -3.515625 10.75 -2.390625 C 9.894531 -1.265625 8.554688 -0.609375 6.734375 -0.421875 C 4.910156 -0.234375 3.457031 -0.601562 2.375 -1.53125 C 1.289062 -2.457031 0.65625 -3.878906 0.46875 -5.796875 Z M -0.8125 -18.109375 "/></g></g></g><g fill="#333333" fill-opacity="1"><g transform="translate(269.197913, 198.008435)"><g><path d="M 2.890625 -17.625 L 4.65625 -0.484375 L 1.328125 -0.140625 L -1.109375 -23.8125 L 3.546875 -24.28125 L 8.828125 -10.515625 L 7.375 -24.6875 L 10.6875 -25.015625 L 13.125 -1.34375 L 9.296875 -0.953125 Z M 2.890625 -17.625 "/></g></g></g><g fill="#ffffff" fill-opacity="1"><g transform="translate(152.075514, 237.633437)"><g><path d="M 0.328125 -4.953125 L 0.828125 -0.078125 L 0.28125 -0.03125 L -0.21875 -4.90625 Z M 0.328125 -4.953125 "/></g></g></g><g fill="#ffffff" fill-opacity="1"><g transform="translate(153.872089, 237.44856)"><g><path d="M 0.765625 -0.078125 L 0.265625 -0.03125 L -0.234375 -4.90625 L 0.46875 -4.96875 L 1.9375 -1.578125 L 1.578125 -5.09375 L 2.0625 -5.140625 L 2.5625 -0.265625 L 2 -0.203125 L 0.359375 -4.03125 Z M 0.765625 -0.078125 "/></g></g></g><g fill="#ffffff" fill-opacity="1"><g transform="translate(157.416503, 237.08382)"><g><path d="M 0.8125 -5.0625 C 1.175781 -5.09375 1.457031 -5.007812 1.65625 -4.8125 C 1.851562 -4.613281 1.972656 -4.328125 2.015625 -3.953125 L 2.015625 -3.828125 L 1.5 -3.765625 L 1.484375 -3.921875 C 1.460938 -4.148438 1.398438 -4.316406 1.296875 -4.421875 C 1.191406 -4.535156 1.050781 -4.582031 0.875 -4.5625 C 0.675781 -4.539062 0.535156 -4.46875 0.453125 -4.34375 C 0.378906 -4.21875 0.351562 -4.046875 0.375 -3.828125 C 0.394531 -3.640625 0.453125 -3.484375 0.546875 -3.359375 C 0.648438 -3.234375 0.765625 -3.117188 0.890625 -3.015625 C 1.023438 -2.910156 1.164062 -2.8125 1.3125 -2.71875 C 1.457031 -2.625 1.597656 -2.515625 1.734375 -2.390625 C 1.867188 -2.273438 1.984375 -2.140625 2.078125 -1.984375 C 2.179688 -1.828125 2.242188 -1.640625 2.265625 -1.421875 C 2.304688 -1.046875 2.25 -0.738281 2.09375 -0.5 C 1.9375 -0.257812 1.671875 -0.117188 1.296875 -0.078125 C 0.921875 -0.046875 0.632812 -0.128906 0.4375 -0.328125 C 0.238281 -0.523438 0.117188 -0.8125 0.078125 -1.1875 L 0.046875 -1.46875 L 0.5625 -1.53125 L 0.609375 -1.21875 C 0.628906 -1 0.691406 -0.832031 0.796875 -0.71875 C 0.898438 -0.613281 1.046875 -0.566406 1.234375 -0.578125 C 1.421875 -0.597656 1.554688 -0.671875 1.640625 -0.796875 C 1.722656 -0.929688 1.753906 -1.109375 1.734375 -1.328125 C 1.710938 -1.515625 1.648438 -1.664062 1.546875 -1.78125 C 1.453125 -1.90625 1.34375 -2.015625 1.21875 -2.109375 C 1.09375 -2.210938 0.953125 -2.3125 0.796875 -2.40625 C 0.648438 -2.5 0.507812 -2.609375 0.375 -2.734375 C 0.238281 -2.859375 0.117188 -2.992188 0.015625 -3.140625 C -0.078125 -3.296875 -0.132812 -3.488281 -0.15625 -3.71875 C -0.195312 -4.101562 -0.140625 -4.410156 0.015625 -4.640625 C 0.171875 -4.878906 0.4375 -5.019531 0.8125 -5.0625 Z M 0.8125 -5.0625 "/></g></g></g><g fill="#ffffff" fill-opacity="1"><g transform="translate(160.70327, 236.745594)"><g><path d="M 1 -0.109375 L 0.546875 -4.5 L -0.359375 -4.40625 L -0.40625 -4.890625 L 1.921875 -5.125 L 1.96875 -4.640625 L 1.078125 -4.546875 L 1.53125 -0.15625 Z M 1 -0.109375 "/></g></g></g><g fill="#ffffff" fill-opacity="1"><g transform="translate(163.927364, 236.413817)"><g><path d="M 0.328125 -4.953125 L 0.828125 -0.078125 L 0.28125 -0.03125 L -0.21875 -4.90625 Z M 0.328125 -4.953125 "/></g></g></g><g fill="#ffffff" fill-opacity="1"><g transform="translate(165.72394, 236.22894)"><g><path d="M 1 -0.109375 L 0.546875 -4.5 L -0.359375 -4.40625 L -0.40625 -4.890625 L 1.921875 -5.125 L 1.96875 -4.640625 L 1.078125 -4.546875 L 1.53125 -0.15625 Z M 1 -0.109375 "/></g></g></g><g fill="#ffffff" fill-opacity="1"><g transform="translate(168.948035, 235.897163)"><g><path d="M 0.671875 -1.234375 C 0.703125 -1.003906 0.769531 -0.832031 0.875 -0.71875 C 0.976562 -0.613281 1.128906 -0.570312 1.328125 -0.59375 C 1.515625 -0.613281 1.644531 -0.6875 1.71875 -0.8125 C 1.800781 -0.945312 1.828125 -1.128906 1.796875 -1.359375 L 1.421875 -5.078125 L 1.9375 -5.125 L 2.3125 -1.4375 C 2.351562 -1.0625 2.296875 -0.75 2.140625 -0.5 C 1.984375 -0.257812 1.71875 -0.117188 1.34375 -0.078125 C 0.976562 -0.0351562 0.695312 -0.117188 0.5 -0.328125 C 0.300781 -0.546875 0.179688 -0.84375 0.140625 -1.21875 L -0.234375 -4.90625 L 0.296875 -4.953125 Z M 0.671875 -1.234375 "/></g></g></g><g fill="#ffffff" fill-opacity="1"><g transform="translate(172.339249, 235.548188)"><g><path d="M 1 -0.109375 L 0.546875 -4.5 L -0.359375 -4.40625 L -0.40625 -4.890625 L 1.921875 -5.125 L 1.96875 -4.640625 L 1.078125 -4.546875 L 1.53125 -0.15625 Z M 1 -0.109375 "/></g></g></g><g fill="#ffffff" fill-opacity="1"><g transform="translate(175.563344, 235.216412)"><g><path d="M 1.71875 -2.921875 L 1.765625 -2.421875 L 0.59375 -2.296875 L 0.78125 -0.578125 L 2.234375 -0.734375 L 2.28125 -0.234375 L 0.28125 -0.03125 L -0.21875 -4.90625 L 1.78125 -5.109375 L 1.828125 -4.625 L 0.375 -4.46875 L 0.546875 -2.796875 Z M 1.71875 -2.921875 "/></g></g></g><g fill="#ffffff" fill-opacity="1"><g transform="translate(178.766551, 234.886784)"><g/></g></g><g fill="#ffffff" fill-opacity="1"><g transform="translate(180.54224, 234.704056)"><g><path d="M -0.140625 -3.734375 C -0.179688 -4.109375 -0.117188 -4.410156 0.046875 -4.640625 C 0.210938 -4.878906 0.484375 -5.019531 0.859375 -5.0625 C 1.222656 -5.101562 1.507812 -5.019531 1.71875 -4.8125 C 1.925781 -4.613281 2.050781 -4.328125 2.09375 -3.953125 L 2.34375 -1.4375 C 2.382812 -1.0625 2.320312 -0.753906 2.15625 -0.515625 C 1.988281 -0.273438 1.722656 -0.132812 1.359375 -0.09375 C 0.984375 -0.0507812 0.691406 -0.132812 0.484375 -0.34375 C 0.273438 -0.550781 0.148438 -0.84375 0.109375 -1.21875 Z M 0.65625 -1.234375 C 0.6875 -1.003906 0.753906 -0.832031 0.859375 -0.71875 C 0.960938 -0.613281 1.113281 -0.570312 1.3125 -0.59375 C 1.5 -0.613281 1.632812 -0.6875 1.71875 -0.8125 C 1.800781 -0.945312 1.828125 -1.128906 1.796875 -1.359375 L 1.53125 -3.9375 C 1.507812 -4.15625 1.445312 -4.316406 1.34375 -4.421875 C 1.238281 -4.535156 1.09375 -4.582031 0.90625 -4.5625 C 0.707031 -4.539062 0.566406 -4.460938 0.484375 -4.328125 C 0.398438 -4.203125 0.367188 -4.03125 0.390625 -3.8125 Z M 0.65625 -1.234375 "/></g></g></g><g fill="#ffffff" fill-opacity="1"><g transform="translate(183.947382, 234.353648)"><g><path d="M 1.671875 -2.8125 L 1.71875 -2.3125 L 0.609375 -2.1875 L 0.828125 -0.078125 L 0.28125 -0.03125 L -0.21875 -4.90625 L 1.703125 -5.109375 L 1.75 -4.625 L 0.375 -4.46875 L 0.5625 -2.6875 Z M 1.671875 -2.8125 "/></g></g></g><g fill="#ffffff" fill-opacity="1"><g transform="translate(187.011317, 234.038353)"><g/></g></g><g fill="#ffffff" fill-opacity="1"><g transform="translate(188.787005, 233.855625)"><g><path d="M 0.328125 -4.953125 L 0.828125 -0.078125 L 0.28125 -0.03125 L -0.21875 -4.90625 Z M 0.328125 -4.953125 "/></g></g></g><g fill="#ffffff" fill-opacity="1"><g transform="translate(190.583579, 233.670748)"><g><path d="M 0.765625 -0.078125 L 0.265625 -0.03125 L -0.234375 -4.90625 L 0.46875 -4.96875 L 1.9375 -1.578125 L 1.578125 -5.09375 L 2.0625 -5.140625 L 2.5625 -0.265625 L 2 -0.203125 L 0.359375 -4.03125 Z M 0.765625 -0.078125 "/></g></g></g><g fill="#ffffff" fill-opacity="1"><g transform="translate(194.127991, 233.306008)"><g><path d="M 1.671875 -2.8125 L 1.71875 -2.3125 L 0.609375 -2.1875 L 0.828125 -0.078125 L 0.28125 -0.03125 L -0.21875 -4.90625 L 1.703125 -5.109375 L 1.75 -4.625 L 0.375 -4.46875 L 0.5625 -2.6875 Z M 1.671875 -2.8125 "/></g></g></g><g fill="#ffffff" fill-opacity="1"><g transform="translate(197.191924, 232.990713)"><g><path d="M -0.140625 -3.734375 C -0.179688 -4.109375 -0.117188 -4.410156 0.046875 -4.640625 C 0.210938 -4.878906 0.484375 -5.019531 0.859375 -5.0625 C 1.222656 -5.101562 1.507812 -5.019531 1.71875 -4.8125 C 1.925781 -4.613281 2.050781 -4.328125 2.09375 -3.953125 L 2.34375 -1.4375 C 2.382812 -1.0625 2.320312 -0.753906 2.15625 -0.515625 C 1.988281 -0.273438 1.722656 -0.132812 1.359375 -0.09375 C 0.984375 -0.0507812 0.691406 -0.132812 0.484375 -0.34375 C 0.273438 -0.550781 0.148438 -0.84375 0.109375 -1.21875 Z M 0.65625 -1.234375 C 0.6875 -1.003906 0.753906 -0.832031 0.859375 -0.71875 C 0.960938 -0.613281 1.113281 -0.570312 1.3125 -0.59375 C 1.5 -0.613281 1.632812 -0.6875 1.71875 -0.8125 C 1.800781 -0.945312 1.828125 -1.128906 1.796875 -1.359375 L 1.53125 -3.9375 C 1.507812 -4.15625 1.445312 -4.316406 1.34375 -4.421875 C 1.238281 -4.535156 1.09375 -4.582031 0.90625 -4.5625 C 0.707031 -4.539062 0.566406 -4.460938 0.484375 -4.328125 C 0.398438 -4.203125 0.367188 -4.03125 0.390625 -3.8125 Z M 0.65625 -1.234375 "/></g></g></g><g fill="#ffffff" fill-opacity="1"><g transform="translate(200.597065, 232.640306)"><g><path d="M 0.875 -5.015625 C 1.25 -5.054688 1.53125 -4.988281 1.71875 -4.8125 C 1.914062 -4.644531 2.03125 -4.378906 2.0625 -4.015625 L 2.109375 -3.609375 C 2.140625 -3.335938 2.113281 -3.113281 2.03125 -2.9375 C 1.945312 -2.757812 1.800781 -2.628906 1.59375 -2.546875 C 1.820312 -2.503906 1.992188 -2.398438 2.109375 -2.234375 C 2.222656 -2.066406 2.289062 -1.851562 2.3125 -1.59375 L 2.390625 -0.84375 C 2.398438 -0.726562 2.414062 -0.617188 2.4375 -0.515625 C 2.457031 -0.421875 2.492188 -0.335938 2.546875 -0.265625 L 2 -0.203125 C 1.957031 -0.273438 1.925781 -0.347656 1.90625 -0.421875 C 1.882812 -0.503906 1.863281 -0.628906 1.84375 -0.796875 L 1.765625 -1.5625 C 1.734375 -1.832031 1.648438 -2.007812 1.515625 -2.09375 C 1.378906 -2.1875 1.207031 -2.222656 1 -2.203125 L 0.609375 -2.15625 L 0.828125 -0.078125 L 0.28125 -0.03125 L -0.21875 -4.90625 Z M 0.96875 -2.703125 C 1.175781 -2.722656 1.332031 -2.785156 1.4375 -2.890625 C 1.550781 -2.992188 1.597656 -3.179688 1.578125 -3.453125 L 1.53125 -3.921875 C 1.5 -4.140625 1.4375 -4.300781 1.34375 -4.40625 C 1.25 -4.507812 1.101562 -4.550781 0.90625 -4.53125 L 0.375 -4.46875 L 0.5625 -2.65625 Z M 0.96875 -2.703125 "/></g></g></g><g fill="#ffffff" fill-opacity="1"><g transform="translate(204.037021, 232.286315)"><g><path d="M 2.078125 -0.21875 L 1.546875 -0.15625 L 0.34375 -3.96875 L 0.75 -0.078125 L 0.265625 -0.03125 L -0.234375 -4.90625 L 0.53125 -4.984375 L 1.734375 -1.171875 L 2.109375 -5.140625 L 2.859375 -5.21875 L 3.359375 -0.34375 L 2.84375 -0.296875 L 2.4375 -4.21875 Z M 2.078125 -0.21875 "/></g></g></g><g fill="#ffffff" fill-opacity="1"><g transform="translate(208.375272, 231.839886)"><g><path d="M 0.734375 -1.0625 L 0.640625 -0.0625 L 0.140625 -0.015625 L 0.578125 -4.984375 L 1.359375 -5.0625 L 2.796875 -0.28125 L 2.25 -0.234375 L 1.96875 -1.203125 Z M 0.75 -1.546875 L 1.828125 -1.65625 L 1 -4.40625 Z M 0.75 -1.546875 "/></g></g></g><g fill="#ffffff" fill-opacity="1"><g transform="translate(212.010213, 231.465831)"><g><path d="M 1 -0.109375 L 0.546875 -4.5 L -0.359375 -4.40625 L -0.40625 -4.890625 L 1.921875 -5.125 L 1.96875 -4.640625 L 1.078125 -4.546875 L 1.53125 -0.15625 Z M 1 -0.109375 "/></g></g></g><g fill="#ffffff" fill-opacity="1"><g transform="translate(215.234306, 231.134054)"><g><path d="M 0.328125 -4.953125 L 0.828125 -0.078125 L 0.28125 -0.03125 L -0.21875 -4.90625 Z M 0.328125 -4.953125 "/></g></g></g><g fill="#ffffff" fill-opacity="1"><g transform="translate(217.030879, 230.949177)"><g><path d="M -0.140625 -3.734375 C -0.179688 -4.109375 -0.117188 -4.410156 0.046875 -4.640625 C 0.210938 -4.878906 0.484375 -5.019531 0.859375 -5.0625 C 1.222656 -5.101562 1.507812 -5.019531 1.71875 -4.8125 C 1.925781 -4.613281 2.050781 -4.328125 2.09375 -3.953125 L 2.34375 -1.4375 C 2.382812 -1.0625 2.320312 -0.753906 2.15625 -0.515625 C 1.988281 -0.273438 1.722656 -0.132812 1.359375 -0.09375 C 0.984375 -0.0507812 0.691406 -0.132812 0.484375 -0.34375 C 0.273438 -0.550781 0.148438 -0.84375 0.109375 -1.21875 Z M 0.65625 -1.234375 C 0.6875 -1.003906 0.753906 -0.832031 0.859375 -0.71875 C 0.960938 -0.613281 1.113281 -0.570312 1.3125 -0.59375 C 1.5 -0.613281 1.632812 -0.6875 1.71875 -0.8125 C 1.800781 -0.945312 1.828125 -1.128906 1.796875 -1.359375 L 1.53125 -3.9375 C 1.507812 -4.15625 1.445312 -4.316406 1.34375 -4.421875 C 1.238281 -4.535156 1.09375 -4.582031 0.90625 -4.5625 C 0.707031 -4.539062 0.566406 -4.460938 0.484375 -4.328125 C 0.398438 -4.203125 0.367188 -4.03125 0.390625 -3.8125 Z M 0.65625 -1.234375 "/></g></g></g><g fill="#ffffff" fill-opacity="1"><g transform="translate(220.43602, 230.598769)"><g><path d="M 0.765625 -0.078125 L 0.265625 -0.03125 L -0.234375 -4.90625 L 0.46875 -4.96875 L 1.9375 -1.578125 L 1.578125 -5.09375 L 2.0625 -5.140625 L 2.5625 -0.265625 L 2 -0.203125 L 0.359375 -4.03125 Z M 0.765625 -0.078125 "/></g></g></g><g fill="#ffffff" fill-opacity="1"><g transform="translate(172.18949, 244.946513)"><g><path d="M 1 -0.109375 L 0.546875 -4.5 L -0.359375 -4.40625 L -0.40625 -4.890625 L 1.921875 -5.125 L 1.96875 -4.640625 L 1.078125 -4.546875 L 1.53125 -0.15625 Z M 1 -0.109375 "/></g></g></g><g fill="#ffffff" fill-opacity="1"><g transform="translate(175.413585, 244.614736)"><g><path d="M 1.71875 -2.921875 L 1.765625 -2.421875 L 0.59375 -2.296875 L 0.78125 -0.578125 L 2.234375 -0.734375 L 2.28125 -0.234375 L 0.28125 -0.03125 L -0.21875 -4.90625 L 1.78125 -5.109375 L 1.828125 -4.625 L 0.375 -4.46875 L 0.546875 -2.796875 Z M 1.71875 -2.921875 "/></g></g></g><g fill="#ffffff" fill-opacity="1"><g transform="translate(178.616792, 244.285108)"><g><path d="M 0.84375 -5.0625 C 1.207031 -5.09375 1.488281 -5.007812 1.6875 -4.8125 C 1.882812 -4.613281 2.003906 -4.328125 2.046875 -3.953125 L 2.09375 -3.515625 L 1.578125 -3.46875 L 1.515625 -3.9375 C 1.492188 -4.15625 1.429688 -4.316406 1.328125 -4.421875 C 1.234375 -4.535156 1.085938 -4.582031 0.890625 -4.5625 C 0.703125 -4.539062 0.566406 -4.460938 0.484375 -4.328125 C 0.398438 -4.203125 0.367188 -4.03125 0.390625 -3.8125 L 0.65625 -1.234375 C 0.6875 -1.003906 0.753906 -0.832031 0.859375 -0.71875 C 0.960938 -0.613281 1.109375 -0.570312 1.296875 -0.59375 C 1.492188 -0.613281 1.628906 -0.6875 1.703125 -0.8125 C 1.785156 -0.945312 1.8125 -1.128906 1.78125 -1.359375 L 1.71875 -1.984375 L 2.234375 -2.03125 L 2.296875 -1.4375 C 2.335938 -1.0625 2.28125 -0.75 2.125 -0.5 C 1.96875 -0.257812 1.707031 -0.125 1.34375 -0.09375 C 0.96875 -0.0507812 0.675781 -0.132812 0.46875 -0.34375 C 0.269531 -0.550781 0.148438 -0.84375 0.109375 -1.21875 L -0.140625 -3.734375 C -0.160156 -3.921875 -0.15625 -4.085938 -0.125 -4.234375 C -0.09375 -4.378906 -0.0390625 -4.507812 0.03125 -4.625 C 0.113281 -4.75 0.222656 -4.847656 0.359375 -4.921875 C 0.492188 -4.992188 0.65625 -5.039062 0.84375 -5.0625 Z M 0.84375 -5.0625 "/></g></g></g><g fill="#ffffff" fill-opacity="1"><g transform="translate(181.959261, 243.94115)"><g><path d="M 0.609375 -2.265625 L 0.828125 -0.078125 L 0.28125 -0.03125 L -0.21875 -4.90625 L 0.328125 -4.953125 L 0.546875 -2.75 L 1.734375 -2.875 L 1.515625 -5.078125 L 2.0625 -5.140625 L 2.5625 -0.265625 L 2.015625 -0.203125 L 1.796875 -2.390625 Z M 0.609375 -2.265625 "/></g></g></g><g fill="#ffffff" fill-opacity="1"><g transform="translate(185.496716, 243.577127)"><g><path d="M 0.765625 -0.078125 L 0.265625 -0.03125 L -0.234375 -4.90625 L 0.46875 -4.96875 L 1.9375 -1.578125 L 1.578125 -5.09375 L 2.0625 -5.140625 L 2.5625 -0.265625 L 2 -0.203125 L 0.359375 -4.03125 Z M 0.765625 -0.078125 "/></g></g></g><g fill="#ffffff" fill-opacity="1"><g transform="translate(189.04113, 243.212387)"><g><path d="M -0.140625 -3.734375 C -0.179688 -4.109375 -0.117188 -4.410156 0.046875 -4.640625 C 0.210938 -4.878906 0.484375 -5.019531 0.859375 -5.0625 C 1.222656 -5.101562 1.507812 -5.019531 1.71875 -4.8125 C 1.925781 -4.613281 2.050781 -4.328125 2.09375 -3.953125 L 2.34375 -1.4375 C 2.382812 -1.0625 2.320312 -0.753906 2.15625 -0.515625 C 1.988281 -0.273438 1.722656 -0.132812 1.359375 -0.09375 C 0.984375 -0.0507812 0.691406 -0.132812 0.484375 -0.34375 C 0.273438 -0.550781 0.148438 -0.84375 0.109375 -1.21875 Z M 0.65625 -1.234375 C 0.6875 -1.003906 0.753906 -0.832031 0.859375 -0.71875 C 0.960938 -0.613281 1.113281 -0.570312 1.3125 -0.59375 C 1.5 -0.613281 1.632812 -0.6875 1.71875 -0.8125 C 1.800781 -0.945312 1.828125 -1.128906 1.796875 -1.359375 L 1.53125 -3.9375 C 1.507812 -4.15625 1.445312 -4.316406 1.34375 -4.421875 C 1.238281 -4.535156 1.09375 -4.582031 0.90625 -4.5625 C 0.707031 -4.539062 0.566406 -4.460938 0.484375 -4.328125 C 0.398438 -4.203125 0.367188 -4.03125 0.390625 -3.8125 Z M 0.65625 -1.234375 "/></g></g></g><g fill="#ffffff" fill-opacity="1"><g transform="translate(192.446273, 242.86198)"><g><path d="M 0.28125 -0.03125 L -0.21875 -4.90625 L 0.328125 -4.953125 L 0.78125 -0.578125 L 2.15625 -0.734375 L 2.203125 -0.234375 Z M 0.28125 -0.03125 "/></g></g></g><g fill="#ffffff" fill-opacity="1"><g transform="translate(195.489311, 242.548834)"><g><path d="M -0.140625 -3.734375 C -0.179688 -4.109375 -0.117188 -4.410156 0.046875 -4.640625 C 0.210938 -4.878906 0.484375 -5.019531 0.859375 -5.0625 C 1.222656 -5.101562 1.507812 -5.019531 1.71875 -4.8125 C 1.925781 -4.613281 2.050781 -4.328125 2.09375 -3.953125 L 2.34375 -1.4375 C 2.382812 -1.0625 2.320312 -0.753906 2.15625 -0.515625 C 1.988281 -0.273438 1.722656 -0.132812 1.359375 -0.09375 C 0.984375 -0.0507812 0.691406 -0.132812 0.484375 -0.34375 C 0.273438 -0.550781 0.148438 -0.84375 0.109375 -1.21875 Z M 0.65625 -1.234375 C 0.6875 -1.003906 0.753906 -0.832031 0.859375 -0.71875 C 0.960938 -0.613281 1.113281 -0.570312 1.3125 -0.59375 C 1.5 -0.613281 1.632812 -0.6875 1.71875 -0.8125 C 1.800781 -0.945312 1.828125 -1.128906 1.796875 -1.359375 L 1.53125 -3.9375 C 1.507812 -4.15625 1.445312 -4.316406 1.34375 -4.421875 C 1.238281 -4.535156 1.09375 -4.582031 0.90625 -4.5625 C 0.707031 -4.539062 0.566406 -4.460938 0.484375 -4.328125 C 0.398438 -4.203125 0.367188 -4.03125 0.390625 -3.8125 Z M 0.65625 -1.234375 "/></g></g></g><g fill="#ffffff" fill-opacity="1"><g transform="translate(198.894454, 242.198427)"><g><path d="M 0.84375 -5.0625 C 1.207031 -5.09375 1.488281 -5.007812 1.6875 -4.8125 C 1.882812 -4.613281 2.003906 -4.328125 2.046875 -3.953125 L 2.078125 -3.53125 L 1.5625 -3.484375 L 1.515625 -3.9375 C 1.492188 -4.15625 1.429688 -4.316406 1.328125 -4.421875 C 1.234375 -4.535156 1.085938 -4.582031 0.890625 -4.5625 C 0.703125 -4.539062 0.566406 -4.460938 0.484375 -4.328125 C 0.398438 -4.203125 0.367188 -4.03125 0.390625 -3.8125 L 0.65625 -1.234375 C 0.6875 -1.003906 0.753906 -0.832031 0.859375 -0.71875 C 0.960938 -0.613281 1.109375 -0.570312 1.296875 -0.59375 C 1.492188 -0.613281 1.628906 -0.6875 1.703125 -0.8125 C 1.785156 -0.945312 1.8125 -1.128906 1.78125 -1.359375 L 1.6875 -2.328125 L 1.203125 -2.265625 L 1.15625 -2.75 L 2.15625 -2.859375 L 2.296875 -1.4375 C 2.335938 -1.0625 2.28125 -0.75 2.125 -0.5 C 1.96875 -0.257812 1.707031 -0.125 1.34375 -0.09375 C 0.96875 -0.0507812 0.675781 -0.132812 0.46875 -0.34375 C 0.269531 -0.550781 0.148438 -0.84375 0.109375 -1.21875 L -0.140625 -3.734375 C -0.160156 -3.921875 -0.15625 -4.085938 -0.125 -4.234375 C -0.09375 -4.378906 -0.0390625 -4.507812 0.03125 -4.625 C 0.113281 -4.75 0.222656 -4.847656 0.359375 -4.921875 C 0.492188 -4.992188 0.65625 -5.039062 0.84375 -5.0625 Z M 0.84375 -5.0625 "/></g></g></g><g fill="#ffffff" fill-opacity="1"><g transform="translate(202.257821, 241.852318)"><g><path d="M 0.96875 -1.84375 L -0.390625 -4.890625 L 0.171875 -4.9375 L 1.1875 -2.609375 L 1.703125 -5.109375 L 2.21875 -5.15625 L 1.5 -1.90625 L 1.671875 -0.171875 L 1.140625 -0.109375 Z M 0.96875 -1.84375 "/></g></g></g></svg>